#!OML:ASF F:\VICON\USERDATA\INSTALL\rory3\rory3.ASF
:FULLY-SPECIFIED
:DEGREES
1111
root 1.11482 17.3094 -25.0703 -181.113 10.8633 546.313
lowerback 19.0013 0.473155 2.89283
upperback 1.93384 2.43065 5.74445
thorax -8.72531 1.45443 3.93427
lowerneck -5.40044 -6.38497 -6.31659
upperneck 34.9126 -2.34067 -4.76477
head 12.6013 -1.00244 -0.697627
rclavicle -9.54166e-015 5.40694e-014
rhumerus -36.2013 -31.3188 -56.709
rradius 35.4166
rwrist -12.0403
rhand -20.0346 0.209034
rfingers 7.12502
rthumb 6.30642 -29.6771
lclavicle -9.54166e-015 5.40694e-014
lhumerus -47.3746 8.82744 79.972
lradius 52.114
lwrist 9.99669
lhand -13.3327 49.2915
lfingers 7.12502
lthumb 12.7724 78.8808
rfemur 11.9178 7.56472 31.7937
rtibia 27.2292
rfoot -17.2861 -9.42725
rtoes -7.41445
lfemur -29.7699 -8.1181 -9.59855
ltibia 25.101
lfoot -11.8282 19.1895
ltoes -40.3241
1112
root 1.12527 17.2821 -25.3016 -181.571 11.2798 547.753
lowerback 18.9917 0.406398 4.0736
upperback 2.36621 2.72501 6.20982
thorax -8.24106 1.6184 3.68385
lowerneck -4.52585 -6.56251 -6.70179
upperneck 34.5702 -2.63992 -4.65269
head 12.2944 -1.14752 -0.600378
rclavicle 3.93594e-014 -5.24792e-014
rhumerus -37.0506 -32.3119 -55.6489
rradius 35.9495
rwrist -12.4833
rhand -19.6751 1.1542
rfingers 7.12502
rthumb 6.65352 -28.7213
lclavicle 3.93594e-014 -5.24792e-014
lhumerus -47.6556 9.34754 79.8405
lradius 51.2116
lwrist 10.4126
lhand -13.8987 49.4707
lfingers 7.12502
lthumb 12.2268 79.0933
rfemur 12.84 7.80112 33.4694
rtibia 28.3451
rfoot -16.5394 -9.12309
rtoes -5.73293
lfemur -29.0803 -6.71501 -8.53227
ltibia 26.1307
lfoot -11.742 18.2373
ltoes -43.8664
1113
root 1.08714 17.2743 -25.5359 -181.284 10.9176 547.067
lowerback 17.4319 0.0951908 3.82662
upperback 3.55538 2.0611 5.78158
thorax -6.06169 1.33559 3.51889
lowerneck -7.36063 -6.47098 -5.90935
upperneck 34.7159 -2.74221 -4.80497
head 12.9071 -1.28021 -0.897816
rclavicle -2.48481e-014 6.04305e-014
rhumerus -35.2016 -35.5836 -56.2148
rradius 35.7651
rwrist -11.4339
rhand -19.0855 2.01295
rfingers 7.12502
rthumb 7.22266 -27.8438
lclavicle -2.48481e-014 6.04305e-014
lhumerus -45.5418 10.5125 79.4396
lradius 49.9379
lwrist 10.9858
lhand -14.1584 49.5811
lfingers 7.12502
lthumb 11.9763 79.2184
rfemur 12.3354 6.96906 32.0526
rtibia 29.9115
rfoot -15.6813 -7.98046
rtoes -5.38741
lfemur -29.3249 -6.18934 -9.85358
ltibia 26.5868
lfoot -10.8068 17.3972
ltoes -47.3892
1114
root 1.0701 17.2746 -25.7699 -181.514 10.8153 546.196
lowerback 17.6746 0.102917 2.97898
upperback 3.34603 1.87982 5.6238
thorax -6.42727 1.23634 3.87437
lowerneck -7.08992 -6.61803 -6.26711
upperneck 35.1995 -2.72515 -4.80039
head 13.0801 -1.27764 -0.828471
rclavicle 1.64991e-014 4.85035e-014
rhumerus -36.212 -33.3667 -56.2375
rradius 37.7086
rwrist -14.7258
rhand -19.7435 1.37668
rfingers 7.12502
rthumb 6.58748 -28.5009
lclavicle 1.64991e-014 4.85035e-014
lhumerus -46.2456 10.9299 79.2758
lradius 48.8833
lwrist 11.5766
lhand -14.4825 50.3518
lfingers 7.12502
lthumb 11.6639 80.0071
rfemur 12.1878 6.54466 30.748
rtibia 31.5651
rfoot -14.6989 -7.26221
rtoes -6.2968
lfemur -29.0993 -5.93644 -11.1925
ltibia 27.3311
lfoot -9.92778 16.7057
ltoes -49.0938
1115
root 1.03681 17.2836 -26.0008 -182.031 10.5157 543.515
lowerback 17.8898 0.287935 0.68009
upperback 3.11687 1.51536 4.85323
thorax -6.79483 1.04185 4.44706
lowerneck -6.88334 -6.7976 -6.54687
upperneck 35.8109 -2.77699 -4.69614
head 13.324 -1.28247 -0.745295
rclavicle -3.49861e-014 -2.8625e-014
rhumerus -37.7131 -32.7558 -55.6888
rradius 39.6411
rwrist -16.5789
rhand -20.0817 0.701413
rfingers 7.12502
rthumb 6.26095 -29.1861
lclavicle -3.49861e-014 -2.8625e-014
lhumerus -46.8151 11.2817 78.9765
lradius 47.8359
lwrist 12.1934
lhand -14.9175 51.0177
lfingers 7.12502
lthumb 11.2443 80.6963
rfemur 11.7813 5.82121 27.1812
rtibia 33.6557
rfoot -13.2434 -5.93453
rtoes -6.67626
lfemur -28.5252 -6.26388 -14.5438
ltibia 27.5708
lfoot -8.75838 16.0352
ltoes -48.6155
1116
root 1.0579 17.2635 -26.2173 -182.34 11.0948 545.477
lowerback 18.4188 0.186176 2.17112
upperback 3.43028 1.84329 5.38092
thorax -6.74874 1.22528 4.08005
lowerneck -6.89521 -6.91887 -6.52604
upperneck 36.163 -2.85384 -4.72026
head 13.4846 -1.30267 -0.772724
rclavicle 7.55382e-015 -4.77083e-015
rhumerus -38.6836 -31.7164 -55.8475
rradius 41.8708
rwrist -19.0699
rhand -20.4794 0.0904464
rfingers 7.12502
rthumb 5.87694 -29.8081
lclavicle 7.55382e-015 -4.77083e-015
lhumerus -46.8452 11.7072 78.5767
lradius 46.413
lwrist 11.8768
lhand -14.4196 50.6977
lfingers 7.12502
lthumb 11.7245 80.3496
rfemur 11.6097 6.64296 29.7218
rtibia 36.0522
rfoot -11.1023 -6.24386
rtoes -6.08471
lfemur -27.618 -5.02385 -12.5997
ltibia 27.9528
lfoot -7.21859 13.9669
ltoes -47.8032
1117
root 1.04372 17.2651 -26.4845 -182.85 10.89 544.719
lowerback 18.374 0.0841419 1.61505
upperback 3.51674 1.55291 5.14141
thorax -6.61752 1.0831 4.20836
lowerneck -6.67521 -6.98665 -6.66364
upperneck 36.3342 -2.92194 -4.59825
head 13.5235 -1.32037 -0.705287
rclavicle -1.59028e-015 1.82882e-014
rhumerus -39.1183 -39.1959 -51.6392
rradius 37.516
rwrist -12.825
rhand -18.16 3.95011
rfingers 7.12502
rthumb 8.11593 -25.874
lclavicle -1.59028e-015 1.82882e-014
lhumerus -47.0868 12.2528 78.111
lradius 44.7451
lwrist 11.2244
lhand -13.6693 50.3688
lfingers 7.12502
lthumb 12.448 79.9781
rfemur 11.2131 6.10568 28.4669
rtibia 38.7398
rfoot -9.21312 -5.3368
rtoes -6.09527
lfemur -26.5906 -4.76992 -13.9212
ltibia 28.2056
lfoot -6.03862 11.6324
ltoes -46.9657
1118
root 1.02073 17.2593 -26.6542 -182.682 10.3452 544.101
lowerback 18.8355 -0.0873322 1.14979
upperback 3.36113 1.20623 4.86338
thorax -7.01195 0.908785 4.26238
lowerneck -7.11097 -7.07127 -5.9719
upperneck 36.7393 -2.86857 -5.2133
head 13.7605 -1.27857 -1.07933
rclavicle 5.96354e-016 -3.18055e-015
rhumerus -40.3842 -32.3901 -54.989
rradius 44.5603
rwrist -21.542
rhand -19.8728 0.138729
rfingers 7.12502
rthumb 6.46263 -29.7427
lclavicle 5.96354e-016 -3.18055e-015
lhumerus -46.7588 12.613 77.6596
lradius 42.9372
lwrist 10.683
lhand -13.224 50.205
lfingers 7.12502
lthumb 12.8773 79.7877
rfemur 9.51336 5.45817 27.3927
rtibia 41.3586
rfoot -6.21153 -4.75109
rtoes -4.92562
lfemur -26.9383 -4.74098 -14.9242
ltibia 28.7979
lfoot -4.59668 8.6137
ltoes -43.392
1119
root 1.00533 17.258 -26.8268 -182.608 9.85098 543.605
lowerback 18.1929 -0.151826 0.854096
upperback 3.95125 1.05142 4.75776
thorax -6.01975 0.847861 4.34216
lowerneck -7.6516 -7.25052 -5.96344
upperneck 36.5387 -3.18832 -5.327
head 13.7832 -1.47997 -1.18969
rclavicle -7.55382e-015 1.98785e-014
rhumerus -39.8282 -37.4351 -52.861
rradius 42.5825
rwrist -19.032
rhand -18.2265 1.70508
rfingers 7.12502
rthumb 8.05172 -28.1215
lclavicle -7.55382e-015 1.98785e-014
lhumerus -45.3233 12.932 77.8683
lradius 41.1943
lwrist 10.1706
lhand -12.7671 50.2006
lfingers 7.12502
lthumb 13.3177 79.755
rfemur 7.77946 4.87253 26.5136
rtibia 44.014
rfoot -2.09557 -4.52755
rtoes 0.733949
lfemur -27.0271 -4.70524 -15.7575
ltibia 29.2457
lfoot -2.79171 5.10058
ltoes -35.6121
1120
root 0.99429 17.278 -27.1099 -183.142 9.98147 542.88
lowerback 18.8714 -0.041561 0.273601
upperback 3.35023 1.03728 4.60133
thorax -7.03618 0.829226 4.52446
lowerneck -6.8952 -7.53445 -6.88464
upperneck 37.4419 -3.22433 -4.9445
head 14.0973 -1.4781 -0.867198
rclavicle -2.0276e-014 8.74653e-015
rhumerus -43.1177 -32.5254 -53.2949
rradius 48.0954
rwrist -24.7504
rhand -19.532 -0.192167
rfingers 7.12502
rthumb 6.79163 -30.0632
lclavicle -2.0276e-014 8.74653e-015
lhumerus -46.9663 12.8468 77.4453
lradius 40.1142
lwrist 9.58798
lhand -12.2101 50.3617
lfingers 7.12502
lthumb 13.8545 79.8802
rfemur 7.08615 4.55218 25.2148
rtibia 46.6362
rfoot 1.52689 -4.14323
rtoes 4.23937
lfemur -25.9475 -4.43017 -16.9326
ltibia 30.0064
lfoot -1.06805 1.74013
ltoes -22.3986
1121
root 1.00439 17.2841 -27.3435 -183.384 10.4377 543.605
lowerback 18.3489 -0.0237603 0.829256
upperback 3.98136 1.2341 4.8243
thorax -6.08612 0.942173 4.38631
lowerneck -7.11021 -7.5685 -6.52326
upperneck 37.0891 -3.34606 -5.30759
head 13.9526 -1.56167 -1.09704
rclavicle -9.14409e-015 4.77083e-015
rhumerus -43.1479 -36.197 -51.3577
rradius 47.1177
rwrist -23.3504
rhand -17.984 1.60575
rfingers 7.12502
rthumb 8.28573 -28.2118
lclavicle -9.14409e-015 4.77083e-015
lhumerus -46.3572 13.2464 77.3067
lradius 38.888
lwrist 8.47502
lhand -11.8385 50.0194
lfingers 7.12502
lthumb 14.2126 79.5132
rfemur 6.09256 4.87255 25.9497
rtibia 48.84
rfoot 5.7209 -4.72039
rtoes 6.81416
lfemur -25.1707 -3.69138 -16.3029
ltibia 30.7099
lfoot -1.16041 1.97506
ltoes -19.9771
1122
root 0.984328 17.2552 -27.4709 -183.239 10.4911 544.361
lowerback 20.7635 -0.0714224 1.48122
upperback 2.74117 1.439 5.10507
thorax -8.74994 1.02931 4.3012
lowerneck -6.4315 -7.84255 -7.90652
upperneck 38.3973 -3.31477 -4.46099
head 14.5237 -1.52209 -0.501607
rclavicle 9.14409e-015 4.21423e-014
rhumerus -46.6202 -29.4983 -52.5882
rradius 53.9652
rwrist -30.3636
rhand -19.8942 -0.494695
rfingers 7.12502
rthumb 6.44192 -30.3767
lclavicle 9.14409e-015 4.21423e-014
lhumerus -48.2642 13.1062 76.8088
lradius 38.0949
lwrist 7.4021
lhand -11.2693 49.8377
lfingers 7.12502
lthumb 14.761 79.2921
rfemur 3.9381 4.99402 26.6882
rtibia 51.3716
rfoot 10.302 -5.70992
rtoes 11.8583
lfemur -25.564 -3.16626 -15.6325
ltibia 31.8831
lfoot -1.19331 1.70431
ltoes -17.9016
1123
root 0.928078 17.3075 -27.7957 -183.369 9.75954 542.294
lowerback 17.6297 -0.273699 0.685246
upperback 4.05572 0.7702 4.34641
thorax -5.58028 0.691302 4.05388
lowerneck -7.15289 -7.90286 -8.18983
upperneck 37.6153 -3.8597 -3.93659
head 14.3383 -1.84052 -0.346076
rclavicle 1.19271e-014 1.59028e-014
rhumerus -46.0481 -33.1396 -51.5052
rradius 53.8919
rwrist -28.8993
rhand -17.5285 1.16748
rfingers 7.12502
rthumb 8.72537 -28.6322
lclavicle 1.19271e-014 1.59028e-014
lhumerus -46.5094 13.5676 76.9836
lradius 36.7702
lwrist 5.86335
lhand -10.446 49.4907
lfingers 7.12502
lthumb 15.5541 78.8852
rfemur 3.02993 3.68613 23.2047
rtibia 53.3325
rfoot 13.3937 -4.99288
rtoes 13.2776
lfemur -24.656 -3.7914 -18.6187
ltibia 32.6581
lfoot -2.71945 1.30193
ltoes -14.7954
1124
root 0.956241 17.2999 -27.9134 -183.517 10.7089 543.923
lowerback 19.5657 -0.0968399 1.53933
upperback 3.85905 1.37423 4.87172
thorax -6.86963 1.01688 4.00068
lowerneck -7.01508 -7.8848 -7.7068
upperneck 37.3368 -3.82399 -4.4723
head 14.1354 -1.83013 -0.632176
rclavicle 1.49089e-014 1.82882e-014
rhumerus -47.4669 -31.9915 -51.4711
rradius 56.8954
rwrist -30.7363
rhand -16.7921 0.746512
rfingers 7.12502
rthumb 9.43596 -29.0223
lclavicle 1.49089e-014 1.82882e-014
lhumerus -46.9304 13.6677 76.6541
lradius 36.0367
lwrist 3.99905
lhand -10.2464 48.9204
lfingers 7.12502
lthumb 15.7464 78.2998
rfemur 1.05045 5.03302 25.6401
rtibia 55.7985
rfoot 17.4958 -7.20144
rtoes 12.9332
lfemur -24.1875 -2.99556 -16.622
ltibia 33.3827
lfoot -3.08361 0.844992
ltoes -12.1364
1125
root 0.924453 17.3407 -28.2115 -183.593 10.302 541.952
lowerback 18.1502 -0.265712 0.254721
upperback 4.09754 0.692975 4.11205
thorax -5.80849 0.656424 4.06951
lowerneck -7.25721 -7.7237 -6.93873
upperneck 37.1472 -3.66349 -4.94786
head 14.042 -1.74 -0.938369
rclavicle -8.15017e-015 7.95139e-015
rhumerus -48.2541 -30.9728 -52.0936
rradius 59.8726
rwrist -32.377
rhand -16.4998 0.423685
rfingers 7.12502
rthumb 9.71793 -29.3321
lclavicle -8.15017e-015 7.95139e-015
lhumerus -47.1359 14.0065 76.0571
lradius 35.6235
lwrist 3.33269
lhand -9.95377 48.6191
lfingers 7.12502
lthumb 16.0282 77.9761
rfemur -0.128653 4.31643 22.7265
rtibia 57.9136
rfoot 19.9661 -7.12993
rtoes 16.9088
lfemur -23.1998 -3.34591 -19.3263
ltibia 33.9292
lfoot -4.46669 0.536805
ltoes -10.1406
